<svg width="230" height="52" viewBox="0 0 230 52" fill="none" xmlns="http://www.w3.org/2000/svg">
<path d="M71.3353 51.3245V1.004H74.0647V8.91947C74.387 8.56848 74.6847 8.19566 74.9556 7.80366C77.2353 3.07403 82.0435 0.0890821 87.2928 0.148039C93.516 -0.0375653 98.5732 2.26611 101.545 7.80366C103.436 11.2438 104.477 15.0865 104.58 19.0108C104.683 22.9352 103.846 26.8273 102.139 30.3622C99.3702 36.5679 92.5312 39.6533 85.2097 38.52C82.9312 38.3263 80.7374 37.565 78.8288 36.3055C76.9201 35.0461 75.3573 33.3286 74.2831 31.3099V51.3223L71.3353 51.3245ZM74.0647 18.8045L74.6761 24.7133C75.7548 31.4387 79.7311 35.4128 85.974 36.1596C88.9056 36.6416 91.9138 36.092 94.4856 34.6044C97.0574 33.1168 99.0337 30.7833 100.078 28.0017C102.506 22.2153 102.327 15.6645 99.5973 10.0134C98.4831 7.51997 96.5876 5.45692 94.1972 4.13605C91.8068 2.81517 89.0513 2.30826 86.3474 2.69191C83.8092 2.87655 81.3916 3.84708 79.4304 5.46868C77.4691 7.09028 76.0616 9.28244 75.4033 11.7406C74.822 14.0669 74.3751 16.4247 74.0647 18.8023V18.8045ZM160.312 25.6435C159.898 29.1865 158.211 32.4586 155.565 34.8512C152.92 37.2439 149.495 38.5942 145.928 38.6511C134.482 39.2275 129.111 31.6265 128.257 22.8551C127.663 18.0917 128.436 13.2578 130.486 8.91728C131.913 5.93973 134.251 3.49371 137.16 1.93356C140.07 0.373418 143.401 -0.219834 146.671 0.239749C149.779 0.503947 152.726 1.73897 155.093 3.77004C157.461 5.80111 159.13 8.52535 159.864 11.5572C160.445 14.3191 160.873 17.1111 161.146 19.9203H131.084C130.528 27.8729 134.801 34.2664 140.858 35.808C148.402 37.6641 154.851 34.3953 157.191 27.2222C157.711 25.3815 158.659 25.1216 160.331 25.6435H160.312ZM131.063 17.3743H157.951C157.783 8.902 152.508 2.74431 145.352 2.67444C137.273 2.54342 131.414 8.45436 131.063 17.3743ZM165.869 25.8291H168.504C168.601 27.7708 169.232 29.6481 170.327 31.2546C171.422 32.8611 172.938 34.1345 174.71 34.9346C176.935 35.9358 179.357 36.4224 181.796 36.3581C184.235 36.2939 186.627 35.6804 188.796 34.5634C189.979 34.031 190.969 33.1486 191.634 32.0352C192.298 30.9219 192.605 29.6314 192.513 28.338C192.581 27.0907 192.24 25.8552 191.543 24.8188C190.845 23.7825 189.829 23.0018 188.648 22.5952C185.748 21.5165 182.665 20.9226 179.711 19.9749C176.636 19.0997 173.63 18.0006 170.716 16.6864C165.956 14.3631 165.661 5.31438 171.05 2.44953C173.81 0.892443 176.915 0.0511071 180.083 0.00228587C183.251 -0.0465354 186.381 0.698712 189.187 2.17003C192.668 4.09158 194.592 7.97179 194.02 11.9088H191.76C191.76 11.7996 191.554 11.7035 191.554 11.5922C191.275 4.38636 185.218 2.13291 178.715 2.76615C176.75 2.9845 174.887 3.57844 173.14 4.45623C172.09 4.93579 171.215 5.72988 170.636 6.72861C170.057 7.72734 169.803 8.88134 169.908 10.0309C169.911 11.1813 170.269 12.3028 170.935 13.2413C171.6 14.1797 172.54 14.8889 173.625 15.2715C176.464 16.3131 179.477 16.9812 182.414 17.7979L189.51 19.6539C191.123 20.1834 192.538 21.19 193.566 22.5406C194.595 23.8912 195.189 25.5221 195.271 27.2178C195.838 31.0282 193.895 34.773 190.458 36.509C184.252 40.0201 174.031 39.0921 169.478 34.6529C167.148 32.3099 165.849 29.1285 165.875 25.8269L165.869 25.8291ZM228.712 11.911H226.24C226.24 11.5769 226.109 11.2559 226.072 11.0004C226.033 9.14758 225.357 7.36465 224.16 5.95054C222.962 4.53643 221.314 3.57712 219.493 3.23343C216.058 2.24814 212.393 2.42469 209.069 3.73565C207.754 4.11188 206.597 4.90351 205.769 5.99219C204.942 7.08087 204.489 8.4081 204.479 9.77543C204.432 11.118 204.85 12.4357 205.662 13.5055C206.475 14.5754 207.632 15.3319 208.938 15.6471L220.236 18.5469C221.457 18.8399 222.66 19.2059 223.838 19.643C227.441 20.9532 229.887 24.2984 229.996 28.1218C230.05 29.9933 229.537 31.8374 228.524 33.4118C227.51 34.9863 226.045 36.2174 224.319 36.9435C221.697 38.1346 218.854 38.7649 215.975 38.7938C213.095 38.8228 210.24 38.2498 207.595 37.1116C205.419 36.1734 203.583 34.5912 202.334 32.5779C201.084 30.5647 200.482 28.217 200.607 25.8509H203.022C203.931 30.229 206.938 33.8756 211.062 35.6006C215.187 37.3256 219.897 36.902 223.648 34.4739C224.774 33.8886 225.708 32.993 226.341 31.8932C226.973 30.7933 227.277 29.5353 227.216 28.2681C227.272 27.0199 226.92 25.7875 226.212 24.7579C225.504 23.7282 224.48 22.9574 223.295 22.5625C220.395 21.4838 217.312 20.9095 214.357 19.9422C211.266 19.0804 208.242 17.9937 205.309 16.6908C200.662 14.4046 200.291 5.43011 205.588 2.56744C208.382 0.945007 211.548 0.0733935 214.778 0.0374246C218.008 0.00145575 221.193 0.802357 224.022 2.36219C225.64 3.32788 226.942 4.74324 227.77 6.4359C228.599 8.12856 228.917 10.0255 228.686 11.8957L228.712 11.911ZM66.8437 37.7427C65.8707 38.1106 64.7967 38.1096 63.8243 37.7399C62.852 37.3702 62.0487 36.6574 61.5659 35.736L51.9582 22.4489L50.5651 20.5929L39.4157 35.7556C38.9613 36.6374 38.2014 37.3237 37.278 37.6861C36.3546 38.0486 35.3308 38.0625 34.3979 37.7252L48.7615 18.4551L35.398 1.0433C37.3806 0.327092 39.5904 1.10445 40.6931 2.89935L50.6502 16.3502L60.6663 2.95175C61.1241 2.08506 61.8845 1.41686 62.8028 1.07424C63.7212 0.731619 64.7334 0.738485 65.647 1.09353L60.4611 7.97398L53.4365 17.1166C53.2415 17.2907 53.0855 17.504 52.9787 17.7426C52.8719 17.9812 52.8167 18.2396 52.8167 18.501C52.8167 18.7624 52.8719 19.0208 52.9787 19.2594C53.0855 19.498 53.2415 19.7113 53.4365 19.8854L66.8153 37.7427H66.8437ZM127.831 0.857703V3.47799C125.951 3.35472 124.067 3.62689 122.299 4.27695C120.532 4.92701 118.92 5.9405 117.568 7.25201C116.216 8.56353 115.154 10.1439 114.451 11.8912C113.748 13.6385 113.419 15.5138 113.485 17.3961C113.485 23.5159 113.485 29.6358 113.485 35.7556V37.8366H110.827V1.02147H113.448V8.56573C116.662 3.06311 121.623 1.02147 127.848 0.872988L127.831 0.857703ZM0.00436788 18.215L1.17476 12.435C4.38899 1.00619 17.4904 -3.74964 26.5043 3.32951C31.782 7.47394 33.0987 13.3456 32.841 19.9618H3.10723C2.62684 31.7793 11.1537 38.9153 22.0607 35.2731C25.6548 33.9629 28.3603 30.9758 29.2512 27.2637C29.8277 25.4077 30.7797 25.0889 32.5222 25.626C32.2316 27.8885 31.4318 30.0556 30.1829 31.9644C28.9341 33.8733 27.2687 35.4741 25.312 36.6465C22.0794 38.4144 18.3705 39.1149 14.7157 38.6478C11.0609 38.1807 7.6474 36.57 4.96327 34.0459C2.30804 31.0609 0.705296 27.2877 0.393044 23.3027C0.393044 22.6476 0.174687 22.0362 0.0218363 21.4466C0.00727909 20.3447 0 19.2674 0 18.215H0.00436788ZM3.14435 17.4158H30.0329C29.8648 8.84959 24.4582 2.7727 17.2481 2.71593C9.22124 2.60675 3.47844 8.55044 3.1247 17.3786L3.14435 17.4158Z" fill="black"/>
</svg>
