<svg width="270" height="125" viewBox="0 0 270 125" fill="none" xmlns="http://www.w3.org/2000/svg">
<path d="M117.499 114.995C122.14 114.995 126.591 113.151 129.873 109.87C133.155 106.588 134.998 102.137 134.998 97.4958V79.9966H117.499C112.858 79.9966 108.407 81.8402 105.125 85.122C101.844 88.4037 100 92.8547 100 97.4958C100 102.137 101.844 106.588 105.125 109.87C108.407 113.151 112.858 114.995 117.499 114.995V114.995Z" fill="#0ACF83"/>
<path d="M100 62.498C100 57.8569 101.844 53.4059 105.125 50.1242C108.407 46.8424 112.858 44.9988 117.499 44.9988H134.998V79.9973H117.499C112.858 79.9973 108.407 78.1536 105.125 74.8719C101.844 71.5901 100 67.1391 100 62.498V62.498Z" fill="#A259FF"/>
<path d="M100 27.4992C100 22.8605 101.842 18.4116 105.121 15.1302C108.399 11.8489 112.847 10.0036 117.486 10H134.985V44.9985H117.499C112.858 44.9985 108.407 43.1548 105.125 39.8731C101.844 36.5913 100 32.1403 100 27.4992V27.4992Z" fill="#F24E1E"/>
<path d="M135.001 10H152.5C157.141 10 161.592 11.8437 164.874 15.1254C168.156 18.4072 169.999 22.8582 169.999 27.4992C169.999 32.1403 168.156 36.5913 164.874 39.8731C161.592 43.1548 157.141 44.9985 152.5 44.9985H135.001V10Z" fill="#FF7262"/>
<path d="M169.999 62.498C169.999 67.1391 168.156 71.5901 164.874 74.8719C161.592 78.1536 157.141 79.9973 152.5 79.9973C147.859 79.9973 143.408 78.1536 140.126 74.8719C136.845 71.5901 135.001 67.1391 135.001 62.498C135.001 57.8569 136.845 53.4059 140.126 50.1242C143.408 46.8424 147.859 44.9988 152.5 44.9988C157.141 44.9988 161.592 46.8424 164.874 50.1242C168.156 53.4059 169.999 57.8569 169.999 62.498V62.498Z" fill="#1ABCFE"/>
</svg>
