<svg width="81" height="120" viewBox="0 0 81 120" fill="none" xmlns="http://www.w3.org/2000/svg">
<path d="M20.0001 120C25.3044 120 30.3915 117.893 34.1422 114.142C37.893 110.391 40.0001 105.304 40.0001 99.9998V79.9998H20.0001C14.6957 79.9998 9.60862 82.1069 5.85788 85.8576C2.10714 89.6084 0 94.6955 0 99.9998C0 105.304 2.10714 110.391 5.85788 114.142C9.60862 117.893 14.6957 120 20.0001 120Z" fill="#0ACF83"/>
<path d="M0 60.0005C0 54.6962 2.10714 49.6091 5.85788 45.8584C9.60862 42.1076 14.6957 40.0005 20.0001 40.0005H40.0001V80.0006H20.0001C14.6957 80.0006 9.60862 77.8935 5.85788 74.1427C2.10714 70.392 0 65.3049 0 60.0005Z" fill="#A259FF"/>
<path d="M0 20.0001C-1.61793e-06 14.6984 2.105 9.61369 5.85236 5.8634C9.59971 2.11311 14.6828 0.0041419 19.9844 0L39.9845 0V40.0001H20.0001C14.6957 40.0001 9.60862 37.893 5.85788 34.1422C2.10714 30.3915 0 25.3044 0 20.0001Z" fill="#F24E1E"/>
<path d="M40.0029 0H60.003C65.3073 0 70.3944 2.10714 74.1452 5.85788C77.8959 9.60862 80.003 14.6957 80.003 20.0001C80.003 25.3044 77.8959 30.3915 74.1452 34.1422C70.3944 37.893 65.3073 40.0001 60.003 40.0001H40.0029V0Z" fill="#FF7262"/>
<path d="M80.003 60.0005C80.003 65.3049 77.8959 70.392 74.1452 74.1427C70.3944 77.8935 65.3073 80.0006 60.003 80.0006C54.6986 80.0006 49.6116 77.8935 45.8608 74.1427C42.1101 70.392 40.0029 65.3049 40.0029 60.0005C40.0029 54.6962 42.1101 49.6091 45.8608 45.8584C49.6116 42.1076 54.6986 40.0005 60.003 40.0005C65.3073 40.0005 70.3944 42.1076 74.1452 45.8584C77.8959 49.6091 80.003 54.6962 80.003 60.0005Z" fill="#1ABCFE"/>
</svg>
