<svg width="250" height="89" viewBox="0 0 250 89" fill="none" xmlns="http://www.w3.org/2000/svg">
<path fill-rule="evenodd" clip-rule="evenodd" d="M123.414 22.0381V52.8914C123.414 59.6791 117.86 65.2327 111.072 65.2327V59.0621C114.51 59.0621 117.243 56.3293 117.243 52.8914V22.0381H123.414ZM236.072 28.2087H250V22.0381H216.062V28.2087H229.902V65.2327H236.072V28.2087ZM197.462 22.0381V52.8914C197.462 56.3293 194.729 59.0621 191.291 59.0621C187.853 59.0621 185.12 56.3293 185.12 52.8914V34.3794C185.12 27.5917 179.567 22.0381 172.779 22.0381C165.991 22.0381 160.438 27.5917 160.438 34.3794V52.8914C160.438 56.3293 157.705 59.0621 154.267 59.0621C150.829 59.0621 148.096 56.3293 148.096 52.8914V22.0381H141.926V52.8914C141.926 59.6791 147.479 65.2327 154.267 65.2327C161.055 65.2327 166.608 59.6791 166.608 52.8914V34.3794C166.608 30.9415 169.341 28.2087 172.779 28.2087C176.217 28.2087 178.95 30.9415 178.95 34.3794V52.8914C178.95 59.6791 184.503 65.2327 191.291 65.2327C198.079 65.2327 203.632 59.6791 203.632 52.8914V22.0381H197.462Z" fill="black"/>
<path fill-rule="evenodd" clip-rule="evenodd" d="M50.5991 23.713L50.5109 0H37.2881L37.3762 23.713L43.9877 32.7927L50.5991 23.713Z" fill="white"/>
<path fill-rule="evenodd" clip-rule="evenodd" d="M37.377 64.3512V88.1523H50.5998V64.3512L43.9884 55.2715L37.377 64.3512Z" fill="white"/>
<path fill-rule="evenodd" clip-rule="evenodd" d="M50.5996 64.3514L64.5277 83.5686L75.1941 75.8112L61.266 56.5939L50.5996 53.156V64.3514Z" fill="#00F2E6"/>
<path fill-rule="evenodd" clip-rule="evenodd" d="M37.377 23.7131L23.3608 4.49585L12.6943 12.2533L26.6224 31.4705L37.377 34.9084V23.7131Z" fill="#00F2E6"/>
<path fill-rule="evenodd" clip-rule="evenodd" d="M26.622 31.4702L4.05501 24.1536L0 36.6712L22.567 44.076L33.2334 40.5499L26.622 31.4702Z" fill="#00B9F1"/>
<path fill-rule="evenodd" clip-rule="evenodd" d="M54.6543 47.5141L61.2657 56.5938L83.8327 63.9104L87.8877 51.3928L65.3207 44.0762L54.6543 47.5141Z" fill="#00B9F1"/>
<path fill-rule="evenodd" clip-rule="evenodd" d="M65.3207 44.076L87.8877 36.6712L83.8327 24.1536L61.2657 31.4702L54.6543 40.5499L65.3207 44.076Z" fill="#D63AFF"/>
<path fill-rule="evenodd" clip-rule="evenodd" d="M22.567 44.0762L0 51.3928L4.05501 63.9104L26.622 56.5938L33.2334 47.5141L22.567 44.0762Z" fill="#D63AFF"/>
<path fill-rule="evenodd" clip-rule="evenodd" d="M26.6224 56.5939L12.6943 75.8112L23.3608 83.5686L37.377 64.3514V53.156L26.6224 56.5939Z" fill="#FB015B"/>
<path fill-rule="evenodd" clip-rule="evenodd" d="M61.266 31.4705L75.1941 12.2533L64.5277 4.49585L50.5996 23.7131V34.9084L61.266 31.4705Z" fill="#FB015B"/>
</svg>
