<svg width="270" height="125" viewBox="0 0 270 125" fill="none" xmlns="http://www.w3.org/2000/svg">
<path d="M45.2801 42.7371C44.408 39.3589 43.1028 36.1076 41.3969 33.064C35.7203 23.1401 26.034 18.2891 12.338 18.5109C22.2164 22.4761 27.231 28.8453 27.3817 37.6186C27.4649 42.6296 24.9587 46.8927 22.1846 51.6158C17.6673 59.3095 12.4396 68.2134 16.5386 83.5016C20.9487 99.9502 31.9294 108.026 49.4806 107.728C39.6022 103.763 34.5877 97.3934 34.437 88.6201C34.3516 83.6129 36.857 79.3468 39.6296 74.624C44.1476 66.9302 49.3787 58.0238 45.2801 42.7371Z" fill="url(#paint0_linear)"/>
<path d="M56.2355 59.8322C53.2307 58.0598 50.0094 56.6833 46.6516 55.7371C35.6221 52.7324 25.3434 56.1494 15.8154 65.9882C25.6037 61.8089 33.6521 62.7679 39.9606 68.8653C43.5618 72.3499 44.8033 77.1362 46.1805 82.4371C48.4249 91.0709 51.0225 101.063 64.7284 108.976C79.4747 117.49 92.9481 115.438 105.149 102.82C95.3603 106.999 87.3118 106.04 81.0033 99.9427C77.4033 96.4623 76.1591 91.6745 74.7812 86.3749C72.5372 77.7404 69.9401 67.7445 56.2355 59.8322Z" fill="url(#paint1_linear)"/>
<path d="M20.0836 55.2998C18.3112 58.3046 16.9348 61.5259 15.9886 64.8837C12.9839 75.9132 15.4317 89.9862 25.2743 99.5029C21.093 89.7155 23.0191 77.8853 29.1194 71.5762C32.5998 67.9762 37.3876 66.732 42.6886 65.3548C51.3223 63.1104 61.3142 60.5128 69.2273 46.8069C77.7411 32.0605 75.6891 18.5872 63.0713 6.38668C67.2505 16.175 66.2915 24.2235 60.1941 30.532C56.7097 34.1297 51.9222 35.3749 46.622 36.7525C37.9915 38.9988 27.9964 41.5945 20.0836 55.2998Z" fill="url(#paint2_linear)"/>
<path d="M97.0061 65.2409H96.8965V43.3571H88.9189V82.781H96.8965V73.1095L98.9728 70.8691L107.363 82.781H116.54L104.82 66.061L115.994 53.4908H106.95L97.0061 65.2409ZM122.934 49.5281C123.476 49.5321 124.013 49.4292 124.515 49.2254C125.017 49.0215 125.474 48.7207 125.86 48.34C126.246 47.9593 126.553 47.5064 126.763 47.007C126.973 46.5076 127.083 45.9716 127.087 45.4297C127.086 44.8871 126.977 44.3501 126.768 43.8496C126.558 43.3492 126.251 42.8953 125.865 42.5142C125.479 42.133 125.021 41.8323 124.518 41.6292C124.015 41.4262 123.476 41.325 122.934 41.3313C122.391 41.3254 121.853 41.427 121.35 41.6305C120.847 41.8339 120.389 42.1351 120.003 42.5166C119.617 42.8981 119.311 43.3523 119.101 43.853C118.892 44.3537 118.784 44.8909 118.784 45.4335C118.787 45.9751 118.897 46.5108 119.107 47.0099C119.317 47.509 119.624 47.9619 120.009 48.3425C120.395 48.7231 120.851 49.024 121.353 49.2281C121.854 49.4322 122.391 49.5354 122.933 49.5319L122.934 49.5281ZM118.972 82.781H126.949V53.4931H118.972V82.781ZM134.378 46.745V53.49H130.255V59.5007H134.38V74.8862C134.38 80.5965 137.058 82.8913 143.943 82.8913C145.217 82.9142 146.49 82.8043 147.741 82.5633V76.6882C147.098 76.7824 146.45 76.828 145.801 76.8247C143.452 76.8247 142.359 75.7593 142.359 73.5188V59.5038H147.768V53.4931H142.358V46.748L134.378 46.745ZM193.227 53.49H185.361L180.908 75.2097H180.744L175.526 53.49H167.876L162.685 75.2127H162.521L158.095 53.4931H150.062L157.849 82.781H166.237L171.509 62.0715H171.673L176.974 82.781H185.468L193.227 53.49ZM200.439 49.5288C200.981 49.5329 201.519 49.43 202.021 49.2261C202.523 49.0223 202.98 48.7214 203.365 48.3408C203.751 47.9601 204.058 47.5071 204.269 47.0077C204.479 46.5084 204.589 45.9724 204.592 45.4305C204.591 44.8879 204.483 44.3508 204.273 43.8504C204.064 43.35 203.757 42.896 203.371 42.5149C202.984 42.1338 202.527 41.833 202.023 41.63C201.52 41.427 200.982 41.3257 200.439 41.3321C199.897 41.3257 199.358 41.427 198.855 41.63C198.352 41.833 197.894 42.1338 197.508 42.5149C197.122 42.896 196.815 43.35 196.605 43.8504C196.396 44.3508 196.287 44.8879 196.286 45.4305C196.289 45.9729 196.399 46.5095 196.609 47.0094C196.82 47.5093 197.127 47.9628 197.513 48.3438C197.899 48.7249 198.357 49.0259 198.859 49.2298C199.362 49.4337 199.9 49.5363 200.442 49.5319L200.439 49.5288ZM196.48 82.781H204.458V53.4931H196.48V82.781ZM209.758 82.781H217.736V65.979C217.736 62.1811 220.004 59.559 223.583 59.559C227.163 59.559 228.965 61.745 228.965 65.5697V82.781H236.943V63.9026C236.943 57.0449 233.282 52.9473 226.779 52.9473C222.272 52.9473 219.184 55.0781 217.627 58.712H217.463V53.4938H209.759L209.758 82.781ZM252.87 83.2454C257.187 83.2454 260.575 80.9782 261.995 77.7536H262.132V82.781H270V43.3571H262.023V58.5204H261.859C260.438 55.269 257.159 53.0286 252.925 53.0286C245.576 53.0286 240.931 58.7932 240.931 68.0822C240.932 77.4532 245.549 83.2454 252.871 83.2454H252.87ZM255.575 59.4218C259.536 59.4218 262.077 62.8096 262.077 68.1374C262.077 73.492 259.536 76.8254 255.575 76.8254C251.559 76.8254 249.1 73.5196 249.1 68.1374C249.101 62.782 251.56 59.4218 255.575 59.4218Z" fill="#180536"/>
<defs>
<linearGradient id="paint0_linear" x1="24.4742" y1="12.4801" x2="-11.9121" y2="87.5021" gradientUnits="userSpaceOnUse">
<stop stop-color="#67B9FF"/>
<stop offset="1" stop-color="#604BFF"/>
</linearGradient>
<linearGradient id="paint1_linear" x1="20.134" y1="53.1444" x2="47.438" y2="131.917" gradientUnits="userSpaceOnUse">
<stop stop-color="#67B9FF"/>
<stop offset="1" stop-color="#604BFF"/>
</linearGradient>
<linearGradient id="paint2_linear" x1="11.4639" y1="94.7477" x2="92.4776" y2="68.3885" gradientUnits="userSpaceOnUse">
<stop stop-color="#67B9FF"/>
<stop offset="1" stop-color="#604BFF"/>
</linearGradient>
</defs>
</svg>
