<svg width="370" height="143" viewBox="0 0 370 143" fill="none" xmlns="http://www.w3.org/2000/svg">
<path d="M31.6684 0.384033L35.4795 7.55181C36.3092 8.84476 37.2751 10.0451 38.3606 11.1322C41.5529 14.3245 44.5914 17.6706 47.3116 21.2545C53.7731 29.7404 58.1332 39.1634 61.2486 49.3661C63.1157 55.5969 64.1296 61.9814 64.2066 68.4429C64.5212 87.7539 57.8989 104.338 44.5074 118.121C42.3376 120.306 39.9943 122.311 37.5005 124.117C36.1718 124.117 35.553 123.068 35.0075 122.17C33.9586 120.421 33.3712 118.509 33.06 116.565C32.5915 114.229 32.2803 111.894 32.4376 109.478V108.387C32.3607 108.152 31.1929 0.932981 31.6579 0.387531L31.6684 0.384033Z" fill="#599636"/>
<path d="M31.6682 0.154758C31.5109 -0.159925 31.3535 0.0778366 31.1997 0.231681C31.2766 1.78761 30.7312 3.1897 29.871 4.51486C28.9375 5.84352 27.6892 6.85051 26.4445 7.94141C19.5145 13.9379 14.067 21.1791 9.70338 29.2769C3.94119 40.1789 0.90625 51.8571 0.0531105 64.1612C-0.331502 68.6017 1.4517 84.252 2.85728 88.7659C6.66844 100.759 13.5215 110.801 22.4375 119.521C24.6193 121.619 26.955 123.57 29.3676 125.437C30.0668 125.437 30.1473 124.815 30.3011 124.346C30.6079 123.352 30.8416 122.336 31.0004 121.308C31.6997 117.416 32.0913 113.521 32.5563 109.629L31.6997 0.154758H31.6682Z" fill="#6CAC48"/>
<path d="M35.4892 128.866C35.6465 127.076 36.5381 125.597 37.4367 124.118C36.5031 123.733 35.8004 122.95 35.2549 122.09C34.7864 121.31 34.3983 120.342 34.0871 119.52C32.9962 116.251 32.7584 112.824 32.4507 109.474V107.447C32.0661 107.761 31.9822 110.405 31.9822 110.796C31.7479 114.377 31.2829 117.884 30.5836 121.307C30.3493 122.705 30.199 124.111 29.3389 125.355C29.3389 125.513 29.3389 125.67 29.4158 125.901C30.8144 130.027 31.206 134.233 31.4437 138.516V140.072C31.4437 141.939 31.3668 141.551 32.9228 142.17C33.5451 142.404 34.2514 142.485 34.8703 142.95C35.3388 142.95 35.4157 142.565 35.4157 142.25L35.1815 139.681V132.513C35.1046 131.268 35.3388 130.02 35.4962 128.852L35.4892 128.866Z" fill="#C2BFBF"/>
<path d="M94.6163 96.3012V103.717C94.608 104.01 94.6247 104.304 94.6663 104.595C94.7627 105.473 95.3018 106.009 96.0944 106.255C96.8339 106.45 97.5853 106.597 98.3437 106.694C98.7829 106.744 98.9292 106.937 98.9792 107.409C99.0292 109.069 98.8828 109.265 97.2726 109.165C93.5166 108.969 89.7571 108.922 86.0011 109.165H85.644C84.473 109.215 84.3766 109.115 84.3766 107.944C84.3766 107.748 84.4266 107.505 84.4266 107.309C84.4266 106.952 84.6693 106.773 85.0121 106.773C85.7976 106.677 86.5259 106.48 87.2614 106.334C88.2861 106.091 88.868 105.456 88.968 104.431C89.1108 103.31 89.1108 102.139 89.1108 101.014L89.1608 87.9395C89.1769 87.5603 89.0847 87.1843 88.8951 86.8555C88.7054 86.5268 88.4261 86.2588 88.0897 86.0829C87.2068 85.5925 86.273 85.1998 85.3049 84.9118C85.0121 84.8154 84.7193 84.769 84.4765 84.6191C83.7625 84.2763 83.7446 83.6444 84.4266 83.2516C84.6693 83.1088 84.9621 83.0089 85.2549 82.9589C88.2159 82.5219 91.1251 81.7862 93.9379 80.7631C94.5235 80.5667 94.6698 80.6203 94.7234 81.2023C94.7734 81.5593 94.7234 81.9877 94.6734 82.3234C94.577 82.9589 94.577 83.5908 94.577 84.1799C94.577 84.4227 94.627 84.6691 94.8698 84.8154C95.1126 84.9618 95.3589 84.8154 95.5838 84.6726C96.6085 83.8872 97.6332 83.1588 98.7543 82.5304C100.361 81.6521 102.075 80.8702 103.931 80.6274C106.181 80.3347 108.126 80.9202 109.837 82.384C110.544 83.0169 111.166 83.7381 111.69 84.5298C112.179 85.2439 112.225 85.2617 112.861 84.7726C114.717 83.4052 116.667 82.1877 118.766 81.3094C120.962 80.3811 123.208 80.2383 125.45 81.0166C127.742 81.8449 129.306 83.4551 130.234 85.6509C131.019 87.4075 131.355 89.2212 131.355 91.1135V104.188C131.355 105.066 131.712 105.616 132.576 106.045C133.504 106.402 134.529 106.58 135.504 106.777C136.139 106.919 136.139 106.919 136.139 107.562C136.043 109.169 135.896 109.269 134.333 109.169C130.417 108.949 126.492 108.949 122.576 109.169C121.79 109.219 121.79 109.219 121.747 108.437V108.194C121.697 106.873 121.697 106.873 122.968 106.587L124.236 106.245C124.665 106.144 125.048 105.901 125.323 105.556C125.597 105.21 125.748 104.783 125.75 104.342L125.892 100.682L125.796 91.1207C125.759 90.267 125.578 89.4257 125.26 88.6321C124.039 85.6545 121.358 84.5834 118.77 84.8761C116.817 85.0725 115.11 85.8508 113.5 86.9755C113.157 87.2183 112.914 87.511 112.964 88.0002C113.403 91.1242 113.107 94.2483 113.161 97.3687V104.152C113.161 105.373 113.65 105.959 114.821 106.252L117.07 106.741C117.413 106.791 117.606 106.937 117.606 107.326V107.683C117.556 109.051 117.463 109.112 116.092 109.097C112.189 108.901 108.284 108.954 104.431 109.097C103.11 109.147 103.003 109.001 103.064 107.669C103.114 106.884 103.207 106.841 103.942 106.694L105.549 106.402C106.977 106.109 107.502 105.573 107.598 104.06L107.741 100.789L107.644 90.9814C107.548 89.7604 107.287 88.5893 106.62 87.4682C105.645 85.6616 104.121 84.7369 102.032 84.6369C99.9325 84.4941 98.0795 85.2724 96.3193 86.2436C95.0983 86.9576 94.5627 87.8038 94.6591 89.2212V96.344L94.6163 96.3012ZM186.542 96.5976V103.478C186.549 103.967 186.582 104.455 186.638 104.941C186.659 105.265 186.784 105.574 186.996 105.82C187.207 106.067 187.492 106.238 187.809 106.309C188.651 106.554 189.518 106.702 190.394 106.748C190.883 106.798 190.98 106.991 191.03 107.384V107.726C190.98 109.433 190.787 109.629 189.127 109.533C185.413 109.29 181.711 109.336 178.001 109.533L176.573 109.583C176.281 109.583 176.216 109.44 176.134 109.24C175.992 108.564 175.992 107.866 176.134 107.191C176.184 106.898 176.377 106.834 176.67 106.752C177.384 106.655 177.991 106.509 178.669 106.395C179.89 106.102 180.329 105.609 180.376 104.345L180.519 100.246V88.243C180.519 87.3647 180.176 86.8291 179.397 86.4364C178.519 85.9472 177.591 85.6081 176.613 85.2653C176.32 85.1689 176.027 85.0689 175.784 84.9226C175.149 84.4834 175.07 83.8515 175.688 83.3623C175.965 83.1346 176.305 82.9975 176.663 82.9696C179.787 82.4804 182.811 81.7985 185.738 80.6274C186.081 80.4846 186.227 80.5775 186.374 80.8702C186.52 81.163 186.57 81.5057 186.517 81.8449L186.374 84.1371C186.374 84.4298 186.231 84.8511 186.47 84.9654C186.763 85.1618 186.959 84.7226 187.202 84.6084C188.643 83.3999 190.234 82.3834 191.936 81.5843C193.45 80.8702 195.007 80.4132 196.767 80.5132C200.038 80.7096 202.38 82.3698 203.89 85.2475C204.675 86.7613 205.011 88.4179 205.157 90.1281L205.3 93.6984L205.35 104.481C205.4 105.309 205.693 105.848 206.521 106.141C207.38 106.427 208.261 106.64 209.156 106.777C209.942 106.873 209.984 107.019 210.034 107.751V107.994C209.938 109.654 209.838 109.701 208.178 109.601C204.538 109.406 200.889 109.406 197.249 109.601C196.76 109.651 196.274 109.601 195.821 109.651C195.528 109.651 195.332 109.601 195.285 109.308C195.189 108.672 195.089 108.04 195.235 107.355C195.285 107.062 195.432 106.916 195.771 106.866L198.02 106.509C198.806 106.312 199.241 105.795 199.341 105.081L199.438 103.713L199.388 93.5163C199.388 92.3453 199.338 91.1742 199.095 90.0031C198.509 87.5039 196.606 85.7187 194.025 85.4688C191.776 85.226 189.741 85.8116 187.877 87.029C186.949 87.6146 186.556 88.4429 186.556 89.4676V96.8368C186.556 96.6939 186.556 96.694 186.606 96.694L186.542 96.5976Z" fill="#47474A"/>
<path d="M329.447 82.7881C328.912 79.2249 327.591 76.0544 325.299 73.2731C323.301 70.8161 320.716 68.9028 317.783 67.7106C314.713 66.4431 311.439 66.0504 308.122 65.954C306.754 65.904 288.117 66.1967 286.75 65.954C286.407 65.904 286.164 66.0039 285.964 66.2967C285.721 66.6537 285.475 67.0286 285.329 67.4178C284.743 68.7388 284.743 68.6388 286.157 68.8316C287.328 69.028 288.449 69.1244 289.574 69.4672C290.599 69.8099 291.33 70.3955 291.573 71.5165C291.67 72.0521 291.77 89.2254 291.77 97.2301L291.573 102.943C291.523 103.382 291.477 103.821 291.33 104.21C291.134 104.796 290.795 105.281 290.209 105.531C289.565 105.834 288.87 106.016 288.16 106.067C286.839 106.209 286.646 106.263 286.207 107.727L286.064 108.262C285.968 108.898 286.014 108.994 286.65 108.994L301.238 109.137L306.951 109.041L310.903 108.552C315.391 107.723 319.393 105.867 322.807 102.893C324.756 101.171 326.348 99.0815 327.491 96.7445C328.858 94.0132 329.444 91.032 329.59 88.0115C329.833 86.3049 329.733 84.5483 329.447 82.7917V82.7881ZM322.371 89.7145C322.175 92.8386 321.543 95.8626 319.932 98.5939C317.883 102.157 314.955 104.646 310.907 105.52C309.15 105.877 307.393 106.056 305.551 105.813C304.23 105.67 302.966 105.52 301.745 105.081C299.549 104.296 298.767 102.939 298.721 100.797L298.671 71.3773C298.671 69.6207 299.457 69.2351 300.72 69.1815C302.623 69.0387 304.576 69.0851 306.479 69.2779C308.505 69.4739 310.493 69.9546 312.385 70.7061C313.79 71.2918 315.092 72.0994 316.241 73.0982C318.876 75.3475 320.632 78.1681 321.596 81.4885C322.382 84.1734 322.524 86.9047 322.382 89.636L322.371 89.7145ZM369.999 94.4988C369.999 94.206 369.999 93.9632 369.949 93.6705C369.51 90.9856 368.093 88.9362 365.9 87.376C364.487 86.3513 362.876 85.6693 361.216 85.1802C360.923 85.0838 360.681 84.9838 360.388 84.9374C360.438 84.6946 360.584 84.6447 360.731 84.5947C361.705 84.1055 362.634 83.57 363.462 82.8381C364.976 81.5706 365.961 80.0068 366.486 78.1038C366.779 77.0791 366.779 76.0544 366.682 74.9798C366.603 73.7226 366.241 72.4995 365.624 71.4011C365.007 70.3028 364.151 69.3575 363.119 68.6353C360.87 66.9751 358.239 66.2931 355.507 66.2432C350.237 66.1468 344.921 66.2432 339.655 66.2432C338.141 66.2432 336.631 66.3396 335.067 66.1003C334.774 66.0504 334.353 65.9575 334.139 66.2967C333.782 66.9322 333.353 67.5642 333.21 68.2961C333.16 68.6388 333.26 68.8316 333.65 68.8816L337.016 69.3708C338.337 69.5671 339.266 70.2991 339.359 71.4701C339.454 72.2794 339.502 73.0937 339.501 73.9087L339.405 83.0309L339.355 101.082C339.355 102.154 339.212 103.182 339.012 104.253C338.964 104.593 338.819 104.912 338.594 105.172C338.369 105.431 338.074 105.621 337.745 105.717C336.77 106.01 335.842 106.302 334.817 106.302C334.543 106.276 334.269 106.344 334.038 106.495C333.808 106.645 333.636 106.869 333.55 107.131C333.353 107.57 333.193 108.059 333.11 108.498C333.014 109.084 333.16 109.284 333.746 109.212C334.185 109.162 350.287 109.555 353.311 109.262C355.118 109.066 356.882 108.823 358.678 108.287C361.748 107.313 364.583 105.895 366.825 103.503C368.682 101.55 369.753 99.208 369.849 96.4767C369.992 95.8412 369.992 95.2093 369.992 94.5238L369.999 94.4988ZM346.335 74.5049L346.478 70.6025C346.478 69.8706 346.771 69.5314 347.503 69.3815C348.674 69.1387 349.845 69.2387 351.016 69.2851C352.187 69.3815 353.308 69.5279 354.479 69.8706C356.621 70.5061 358.285 71.7272 359.263 73.773C359.707 74.7032 359.94 75.72 359.945 76.7506C359.995 78.1181 359.895 79.4355 359.36 80.7494C358.531 82.556 357.217 83.7271 355.311 84.0698C353.404 84.4126 347.992 84.2662 347.163 84.2662C346.431 84.2662 346.378 84.1698 346.378 83.4379V78.8429C346.263 77.414 346.246 75.9789 346.328 74.5478L346.335 74.5049ZM362.187 100.754C361.359 102.95 359.845 104.467 357.699 105.288C356.528 105.727 355.357 106.002 354.129 105.924C352.615 105.874 351.105 105.924 349.595 105.631C347.545 105.192 346.617 103.239 346.471 101.825C346.228 99.3366 346.374 96.7981 346.328 94.9451V88.5042C346.328 87.7187 346.424 87.4795 347.256 87.4795L351.844 87.5295L354.968 87.8865C357.164 88.3757 359.163 89.2075 360.727 90.9106C361.994 92.278 362.68 93.9347 362.826 95.7412C362.969 97.4479 362.876 99.1081 362.241 100.718L362.187 100.754Z" fill="#C2BFBF"/>
<path d="M238.215 86.0554L239.482 86.2518C240.849 86.3018 242.46 85.8126 242.945 83.9097C243.213 83.0007 243.213 82.0338 242.945 81.1248C242.652 81.1248 242.506 81.3676 242.36 81.4675C241.628 82.0531 240.799 82.3958 239.921 82.4922C238.165 82.6886 236.408 82.5886 234.701 81.9567L232.309 81.1284C230.641 80.582 228.885 80.3519 227.132 80.45C224.644 80.6464 222.302 81.4747 220.106 82.6458C217.764 83.9132 216.107 85.8162 215.322 88.4047C214.882 89.9185 214.832 91.4752 215.029 93.039C215.518 96.6022 217.371 99.0907 220.688 100.408C220.884 100.458 221.031 100.551 221.223 100.605C221.662 100.847 221.712 101.094 221.32 101.433L220.099 102.261L217.171 104.068C216.439 104.507 216.343 104.853 216.585 105.628C216.876 106.539 217.416 107.351 218.146 107.97C218.815 108.545 219.574 109.006 220.391 109.338C220.927 109.58 220.927 109.695 220.441 110.123L217.657 112.122C216.728 112.837 215.8 113.551 215.022 114.465C214.48 115.044 214.09 115.748 213.886 116.514C213.682 117.28 213.67 118.084 213.851 118.856C214.213 120.55 215.1 122.086 216.386 123.248C217.654 124.422 219.197 125.261 220.873 125.686C223.605 126.472 226.436 126.514 229.217 125.979C233.216 125.247 236.715 123.48 239.464 120.466C241.367 118.467 242.488 116.125 242.588 113.326C242.695 111.707 242.224 110.103 241.259 108.798C240.294 107.494 238.898 106.574 237.318 106.203L234.683 105.714L226.632 105C225.754 104.95 224.876 104.803 224.144 104.364C223.216 103.779 222.973 102.657 223.558 101.926C223.997 101.39 224.533 101.047 225.219 100.997L226.779 100.854C229.864 100.541 232.761 99.2208 235.023 97.0985C236.23 95.9807 237.094 94.5414 237.511 92.9497C238.097 90.8504 238.097 88.6653 237.608 86.5231C237.465 85.9876 237.511 85.9376 238.193 86.034L238.215 86.0554ZM226.254 110.359C226.547 110.409 226.839 110.359 227.132 110.359C229.182 110.455 231.281 110.601 233.28 111.144C233.933 111.337 234.57 111.582 235.183 111.876C237.136 112.947 237.868 114.804 237.622 116.803C237.329 118.999 236.108 120.559 234.205 121.587C232.938 122.301 231.52 122.612 230.056 122.758C229.521 122.808 229.032 122.758 228.496 122.758C226.789 122.808 225.129 122.616 223.519 121.93C222.398 121.491 221.47 120.859 220.641 119.977C218.935 118.271 218.142 115.146 220.691 112.608C222.252 111.18 224.012 110.169 226.254 110.359ZM231.817 95.1348C230.792 97.7197 228.546 98.5016 226.304 98.1589C224.255 97.8661 222.741 96.745 221.77 94.8884C220.502 92.3999 220.163 89.8186 220.891 87.1301C221.427 85.1307 222.648 83.6169 224.794 83.2741C227.525 82.785 230.149 83.7633 231.527 86.4946C232.241 87.8156 232.552 89.4223 232.552 91.7144C232.502 92.6427 232.309 93.9102 231.82 95.1312L231.817 95.1348ZM170.343 91.8144C169.903 89.1795 168.929 86.7873 167.122 84.788C164.437 81.8103 161.024 80.5036 157.168 80.4928C153.801 80.4429 150.634 81.4211 147.799 83.1777C145.013 84.8455 142.97 87.5168 142.09 90.6433C141.262 93.4746 141.305 96.3558 141.948 99.23C143.654 106.942 149.61 110.255 156.729 109.77C158.828 109.627 160.828 108.941 162.727 108.013C165.558 106.692 167.608 104.596 169.021 101.815C170.143 99.5227 170.628 97.0806 170.582 94.2993L170.339 91.8108L170.343 91.8144ZM163.416 102.647C163.067 103.745 162.406 104.717 161.513 105.445C160.62 106.173 159.535 106.625 158.389 106.746C156.247 107.038 154.24 106.503 152.437 105.232C151.136 104.274 150.082 103.019 149.363 101.572C147.364 97.4733 147.021 93.1818 148.042 88.7903C148.371 87.4312 149.082 86.1947 150.092 85.2271C151.898 83.5669 153.994 83.1777 156.34 83.6669C158.589 84.156 160.292 85.3735 161.695 87.2301C163.098 89.0866 163.745 91.2288 164.134 93.4782C164.33 94.5992 164.33 95.7703 164.376 96.5022C164.376 98.8444 164.18 100.787 163.448 102.65L163.416 102.647ZM276.953 92.2071C276.596 89.3758 275.539 86.7909 273.536 84.6451C270.901 81.7675 267.484 80.5464 263.682 80.4964C260.411 80.4464 257.387 81.3747 254.606 82.9849C251.482 84.8415 249.336 87.4728 248.508 91.036C247.519 94.9234 247.933 99.0352 249.679 102.647C251.286 106.064 254.02 108.259 257.634 109.234C261.632 110.305 265.442 109.82 269.148 108.013C272.368 106.453 274.661 104.014 275.978 100.694C276.763 98.7408 277.049 96.645 277.099 94.2029C277.149 93.7638 277.049 92.9819 276.956 92.2035L276.953 92.2071ZM270.219 102.015C269.434 104.65 267.78 106.356 264.999 106.749C262.95 107.042 261 106.553 259.24 105.382C257.726 104.357 256.655 102.99 255.873 101.383C254.995 99.6763 254.506 97.8697 254.313 96.0167C254.02 93.7245 254.02 91.4823 254.556 89.1866C254.658 88.7339 254.805 88.2926 254.995 87.8692C256.363 84.4523 259.387 82.8921 262.95 83.674C265.342 84.2096 267.145 85.5306 268.512 87.53C269.833 89.4829 270.465 91.6287 270.762 93.9566C270.905 94.8849 270.958 95.8596 270.905 96.6879C270.905 98.5909 270.762 100.347 270.19 102.054L270.219 102.015Z" fill="#47474A"/>
</svg>
