<svg width="170" height="105" viewBox="0 0 170 105" fill="none" xmlns="http://www.w3.org/2000/svg">
<path d="M84.0773 104.098C83.5012 104.098 82.9632 103.944 82.4635 103.675L77.3529 100.64C76.5842 100.217 76.9686 100.063 77.1993 99.9866C78.2367 99.6408 78.4288 99.5637 79.5047 98.9493C79.6201 98.8721 79.774 98.9107 79.8891 98.9875L83.8087 101.331C83.9623 101.408 84.1545 101.408 84.2695 101.331L99.6019 92.4549C99.7555 92.3781 99.8326 92.2241 99.8326 92.0323V74.3177C99.8326 74.1252 99.7555 73.9719 99.6019 73.8948L84.2695 65.0568C84.1159 64.9796 83.9237 64.9796 83.8087 65.0568L68.4763 73.8948C68.3227 73.9716 68.2456 74.1638 68.2456 74.3174V92.032C68.2456 92.1859 68.3227 92.3778 68.4763 92.4549L72.6649 94.8757C74.9321 96.0284 76.3538 94.6835 76.3538 93.3386V75.8544C76.3538 75.624 76.546 75.3933 76.815 75.3933H78.7746C79.0053 75.3933 79.2358 75.5855 79.2358 75.8544V93.3386C79.2358 96.3742 77.5833 98.142 74.7014 98.142C73.8176 98.142 73.1261 98.142 71.1661 97.1811L67.1314 94.8757C66.1323 94.2995 65.5176 93.2233 65.5176 92.0705V74.3559C65.5176 73.2032 66.1323 72.127 67.1314 71.5508L82.4635 62.6742C83.4244 62.1363 84.731 62.1363 85.6915 62.6742L101.024 71.5508C102.023 72.127 102.638 73.2032 102.638 74.3559V92.0705C102.638 93.2233 102.023 94.2995 101.024 94.8757L85.6915 103.752C85.1918 103.983 84.6156 104.098 84.0777 104.098H84.0773ZM88.8039 91.9169C82.0795 91.9169 80.696 88.8428 80.696 86.2298C80.696 85.9991 80.8882 85.7687 81.1572 85.7687H83.1554C83.3858 85.7687 83.578 85.9223 83.578 86.153C83.8855 88.1895 84.7692 89.1886 88.8425 89.1886C92.0702 89.1886 93.454 88.4585 93.454 86.7292C93.454 85.7301 93.0693 85.0003 88.0355 84.5006C83.8469 84.0777 81.234 83.1557 81.234 79.8126C81.234 76.6999 83.8473 74.8553 88.2277 74.8553C93.1461 74.8553 95.5672 76.5463 95.8748 80.2349C95.8748 80.3506 95.8362 80.4656 95.7594 80.581C95.6823 80.6578 95.5672 80.7346 95.4519 80.7346H93.4537C93.2615 80.7346 93.0693 80.581 93.0311 80.3888C92.5699 78.2756 91.3786 77.5837 88.2277 77.5837C84.6924 77.5837 84.2695 78.8135 84.2695 79.7355C84.2695 80.85 84.7692 81.1958 89.534 81.8105C94.2606 82.4256 96.4895 83.3093 96.4895 86.6139C96.451 89.9955 93.6844 91.9169 88.8039 91.9169Z" fill="#539E43"/>
<path d="M36.5054 34.8149C36.5054 34.1233 36.1211 33.4696 35.5063 33.1239L19.2134 23.7479C18.9441 23.594 18.6369 23.5171 18.3297 23.4786H18.1758C17.8685 23.4786 17.561 23.594 17.292 23.7479L0.999106 33.1239C0.384016 33.4696 0 34.123 0 34.8149L0.0385678 60.0226C0.0385678 60.3684 0.230742 60.7142 0.537955 60.8681C0.8455 61.0603 1.22952 61.0603 1.49883 60.8681L11.1823 55.3346C11.7971 54.9888 12.1814 54.3355 12.1814 53.6439V41.8468C12.1814 41.1553 12.5655 40.502 13.1806 40.1562L17.292 37.7736C17.5996 37.5814 17.9453 37.5043 18.2911 37.5043C18.6369 37.5043 18.9827 37.5814 19.252 37.7736L23.3635 40.1562C23.9785 40.502 24.3626 41.1549 24.3626 41.8468V53.6439C24.3626 54.3355 24.7469 54.9888 25.3617 55.3346L35.0452 60.8681C35.3527 61.0603 35.7367 61.0603 36.0443 60.8681C36.3518 60.7142 36.544 60.3684 36.544 60.0226L36.5054 34.8149ZM114.819 0.115454C114.512 -0.0384847 114.128 -0.0384847 113.858 0.115454C113.551 0.307628 113.359 0.614841 113.359 0.960622V25.9383C113.359 26.1687 113.244 26.3991 113.013 26.553C112.783 26.6681 112.552 26.6681 112.321 26.553L108.248 24.209C107.95 24.039 107.612 23.9496 107.268 23.9496C106.925 23.9496 106.587 24.039 106.288 24.209L89.9954 33.6236C89.3806 33.9694 88.9963 34.6227 88.9963 35.3142V54.1048C88.9963 54.7963 89.3806 55.45 89.9954 55.7958L106.288 65.2103C106.587 65.3803 106.925 65.4697 107.268 65.4697C107.612 65.4697 107.95 65.3803 108.248 65.2103L124.541 55.7958C125.156 55.45 125.54 54.7966 125.54 54.1048V7.2628C125.54 6.53267 125.156 5.87968 124.541 5.53357L114.819 0.115454H114.819ZM113.321 47.9183C113.321 48.1105 113.244 48.2641 113.09 48.3409L107.518 51.5686C107.44 51.6066 107.355 51.6263 107.268 51.6263C107.182 51.6263 107.096 51.6066 107.018 51.5686L101.447 48.3409C101.293 48.2641 101.216 48.0719 101.216 47.9183V41.4625C101.216 41.2703 101.293 41.1167 101.447 41.0399L107.018 37.8118C107.096 37.7739 107.182 37.7542 107.268 37.7542C107.355 37.7542 107.44 37.7739 107.518 37.8118L113.09 41.0399C113.244 41.1164 113.321 41.3089 113.321 41.4625V47.9183ZM169.039 41.3089C169.654 40.9631 170 40.3098 170 39.6179V35.0453C170 34.3537 169.616 33.7004 169.039 33.3546L152.862 23.9786C152.563 23.8087 152.225 23.7193 151.882 23.7193C151.538 23.7193 151.201 23.8087 150.902 23.9786L134.609 33.3928C133.994 33.7386 133.61 34.3919 133.61 35.0838V53.8743C133.61 54.5659 133.994 55.2192 134.609 55.565L150.787 64.7874C151.402 65.1332 152.131 65.1332 152.708 64.7874L162.507 59.3314C162.814 59.1774 163.006 58.8316 163.006 58.4859C163.006 58.1401 162.814 57.7943 162.507 57.6404L146.137 48.2258C145.83 48.034 145.637 47.7264 145.637 47.3807V41.5014C145.637 41.1556 145.83 40.8098 146.137 40.6559L151.248 37.7354C151.397 37.6412 151.571 37.5913 151.747 37.5913C151.924 37.5913 152.097 37.6412 152.247 37.7354L157.357 40.6559C157.665 40.8481 157.857 41.1553 157.857 41.5014V46.1126C157.857 46.4584 158.049 46.8041 158.357 46.9577C158.664 47.1499 159.048 47.1499 159.356 46.9577L169.039 41.3089Z" fill="#333333"/>
<path d="M151.632 40.425C151.689 40.3874 151.756 40.3674 151.824 40.3674C151.892 40.3674 151.959 40.3874 152.016 40.425L155.129 42.231C155.244 42.3075 155.321 42.4229 155.321 42.5768V46.1889C155.321 46.3425 155.244 46.4579 155.129 46.5347L152.016 48.3407C151.959 48.3782 151.892 48.3982 151.824 48.3982C151.756 48.3982 151.689 48.3782 151.632 48.3407L148.519 46.5347C148.404 46.4579 148.327 46.3425 148.327 46.1889V42.5768C148.327 42.4229 148.404 42.3075 148.519 42.231L151.632 40.425Z" fill="#539E43"/>
<mask id="mask0" mask-type="alpha" maskUnits="userSpaceOnUse" x="44" y="23" width="37" height="43">
<path d="M63.7494 24.0552C63.4508 23.8853 63.1132 23.7959 62.7696 23.7959C62.426 23.7959 62.0884 23.8853 61.7898 24.0552L45.6122 33.3923C44.9971 33.7381 44.6514 34.3914 44.6514 35.083V53.797C44.6514 54.4886 45.0357 55.1419 45.6122 55.4877L61.7898 64.8254C62.0884 64.9954 62.426 65.0848 62.7696 65.0848C63.1132 65.0848 63.4508 64.9954 63.7494 64.8254L79.9273 55.4877C80.542 55.1419 80.8882 54.4886 80.8882 53.797V35.0833C80.8882 34.3918 80.5035 33.7384 79.9273 33.3926L63.7494 24.0552Z" fill="white"/>
</mask>
<g mask="url(#mask0)">
<path d="M63.7494 24.0552C63.4508 23.8853 63.1132 23.7959 62.7696 23.7959C62.426 23.7959 62.0884 23.8853 61.7898 24.0552L45.6122 33.3923C44.9971 33.7381 44.6514 34.3914 44.6514 35.083V53.797C44.6514 54.4886 45.0357 55.1419 45.6122 55.4877L61.7898 64.8254C62.0884 64.9954 62.426 65.0848 62.7696 65.0848C63.1132 65.0848 63.4508 64.9954 63.7494 64.8254L79.9273 55.4877C80.542 55.1419 80.8882 54.4886 80.8882 53.797V35.0833C80.8882 34.3918 80.5035 33.7384 79.9273 33.3926L63.7494 24.0552Z" fill="url(#paint0_linear)"/>
<path d="M79.9664 33.3924L63.7121 24.055C63.5524 23.9743 63.385 23.9099 63.2124 23.8628L44.998 55.0655C45.1489 55.2497 45.3312 55.4058 45.5363 55.5266L61.7907 64.8644C62.2518 65.1334 62.7898 65.2102 63.2892 65.0562L80.3893 33.7771C80.274 33.6234 80.12 33.5077 79.9664 33.3927V33.3924Z" fill="url(#paint1_linear)"/>
<path fill-rule="evenodd" clip-rule="evenodd" d="M80.0055 55.4883C80.4666 55.2193 80.8124 54.7582 80.9663 54.2588L63.1357 23.8248C62.6746 23.748 62.1748 23.7862 61.7526 24.0552L45.6133 33.3547L63.0203 65.095C63.2735 65.0536 63.5194 64.976 63.7505 64.8646L80.0051 55.4886L80.0055 55.4883Z" fill="url(#paint2_linear)"/>
<path fill-rule="evenodd" clip-rule="evenodd" d="M80.0048 55.4885L63.7887 64.8263C63.5598 64.943 63.3131 65.0209 63.0586 65.0567L63.3661 65.6332L81.3497 55.2199V54.9892L80.8886 54.2205C80.8118 54.7584 80.466 55.2196 80.0048 55.4885Z" fill="url(#paint3_linear)"/>
<path fill-rule="evenodd" clip-rule="evenodd" d="M80.0048 55.4885L63.7887 64.8263C63.5598 64.943 63.3131 65.0209 63.0586 65.0567L63.3661 65.6332L81.3497 55.2199V54.9892L80.8886 54.2205C80.8118 54.7584 80.466 55.2196 80.0048 55.4885Z" fill="url(#paint4_linear)"/>
</g>
<defs>
<linearGradient id="paint0_linear" x1="69.3605" y1="31.0161" x2="51.6284" y2="58.8785" gradientUnits="userSpaceOnUse">
<stop stop-color="#41873F"/>
<stop offset="0.3288" stop-color="#418B3D"/>
<stop offset="0.6352" stop-color="#419637"/>
<stop offset="0.9319" stop-color="#3FA92D"/>
<stop offset="1" stop-color="#3FAE2A"/>
</linearGradient>
<linearGradient id="paint1_linear" x1="60.3143" y1="46.6321" x2="104.724" y2="22.5043" gradientUnits="userSpaceOnUse">
<stop offset="0.1376" stop-color="#41873F"/>
<stop offset="0.4032" stop-color="#54A044"/>
<stop offset="0.7136" stop-color="#66B848"/>
<stop offset="0.9081" stop-color="#6CC04A"/>
</linearGradient>
<linearGradient id="paint2_linear" x1="44.0616" y1="44.4412" x2="81.4963" y2="44.4412" gradientUnits="userSpaceOnUse">
<stop offset="0.09192" stop-color="#6CC04A"/>
<stop offset="0.2864" stop-color="#66B848"/>
<stop offset="0.5968" stop-color="#54A044"/>
<stop offset="0.8624" stop-color="#41873F"/>
</linearGradient>
<linearGradient id="paint3_linear" x1="44.0613" y1="59.9582" x2="81.4955" y2="59.9582" gradientUnits="userSpaceOnUse">
<stop offset="0.09192" stop-color="#6CC04A"/>
<stop offset="0.2864" stop-color="#66B848"/>
<stop offset="0.5968" stop-color="#54A044"/>
<stop offset="0.8624" stop-color="#41873F"/>
</linearGradient>
<linearGradient id="paint4_linear" x1="86.9492" y1="30.1317" x2="77.4656" y2="79.8252" gradientUnits="userSpaceOnUse">
<stop stop-color="#41873F"/>
<stop offset="0.3288" stop-color="#418B3D"/>
<stop offset="0.6352" stop-color="#419637"/>
<stop offset="0.9319" stop-color="#3FA92D"/>
<stop offset="1" stop-color="#3FAE2A"/>
</linearGradient>
</defs>
</svg>
