<svg width="140" height="125" viewBox="0 0 140 125" fill="none" xmlns="http://www.w3.org/2000/svg">
<path d="M140 62.3522C140 53.0779 128.386 44.2886 110.579 38.8382C114.688 20.689 112.862 6.24949 104.815 1.62658C102.96 0.542192 100.791 0.0285361 98.4223 0.0285361V6.39217C99.735 6.39217 100.791 6.649 101.675 7.13412C105.556 9.35997 107.24 17.8353 105.927 28.7362C105.614 31.4187 105.1 34.2438 104.472 37.126C98.8789 35.7562 92.7721 34.7004 86.3514 34.0155C82.499 28.7362 78.5039 23.9421 74.4802 19.7472C83.7831 11.1007 92.5153 6.36364 98.4509 6.36364V0C90.6033 0 80.3302 5.59315 69.9429 15.2956C59.5556 5.65023 49.2825 0.114146 41.435 0.114146V6.47778C47.342 6.47778 56.1027 11.1863 65.4056 19.7758C61.4105 23.9706 57.4154 28.7362 53.6201 34.0155C47.1708 34.7004 41.064 35.7562 35.4709 37.1545C34.8145 34.3009 34.3294 31.5328 33.987 28.8789C32.6457 17.978 34.3009 9.50265 38.1533 7.24827C39.0094 6.73461 40.1223 6.50632 41.435 6.50632V0.142682C39.0379 0.142682 36.8691 0.656339 34.9857 1.74073C26.967 6.36364 25.1692 20.7746 29.307 38.8667C11.5573 44.3457 0 53.1064 0 62.3522C0 71.6266 11.6143 80.4158 29.4211 85.8663C25.3119 104.015 27.1382 118.455 35.1855 123.078C37.0404 124.162 39.2091 124.676 41.6062 124.676C49.4537 124.676 59.7269 119.083 70.1141 109.38C80.5014 119.026 90.7746 124.562 98.6221 124.562C101.019 124.562 103.188 124.048 105.071 122.964C113.09 118.341 114.888 103.93 110.75 85.8377C128.443 80.3873 140 71.598 140 62.3522ZM102.845 43.3184C101.79 46.9996 100.477 50.7949 98.9931 54.5903C97.8231 52.3074 96.596 50.0245 95.2548 47.7415C93.9421 45.4586 92.5438 43.2328 91.1455 41.064C95.1977 41.6633 99.1072 42.4052 102.845 43.3184ZM89.7758 73.7097C87.5499 77.5622 85.267 81.2148 82.8985 84.6107C78.6466 84.9817 74.3375 85.1814 70 85.1814C65.691 85.1814 61.382 84.9817 57.1586 84.6392C54.7901 81.2434 52.4786 77.6192 50.2528 73.7954C48.084 70.0571 46.115 66.2617 44.3172 62.4378C46.0864 58.6139 48.084 54.7901 50.2242 51.0518C52.4501 47.1993 54.733 43.5467 57.1015 40.1508C61.3534 39.7799 65.6625 39.5801 70 39.5801C74.309 39.5801 78.618 39.7799 82.8414 40.1223C85.2099 43.5181 87.5214 47.1423 89.7473 50.9662C91.916 54.7044 93.885 58.4998 95.6828 62.3237C93.885 66.1476 91.916 69.9715 89.7758 73.7097ZM98.9931 70C100.534 73.8239 101.847 77.6478 102.931 81.3575C99.1928 82.2707 95.2548 83.0412 91.1741 83.6404C92.5724 81.4431 93.9707 79.1887 95.2833 76.8773C96.596 74.5944 97.8231 72.2829 98.9931 70ZM70.0571 100.448C67.4032 97.7089 64.7493 94.6555 62.1239 91.3168C64.6922 91.4309 67.3176 91.5165 69.9715 91.5165C72.6539 91.5165 75.3078 91.4594 77.9046 91.3168C75.3363 94.6555 72.6824 97.7089 70.0571 100.448ZM48.8259 83.6404C44.7737 83.0412 40.8642 82.2992 37.126 81.3861C38.1818 77.7049 39.4945 73.9095 40.9784 70.1142C42.1484 72.3971 43.3755 74.68 44.7167 76.9629C46.0579 79.2458 47.4276 81.4717 48.8259 83.6404ZM69.9144 24.256C72.5683 26.9955 75.2222 30.0489 77.8475 33.3877C75.2792 33.2735 72.6539 33.1879 70 33.1879C67.3176 33.1879 64.6637 33.245 62.0669 33.3877C64.6351 30.0489 67.289 26.9955 69.9144 24.256ZM48.7974 41.064C47.3991 43.2613 46.0008 45.5157 44.6881 47.8272C43.3755 50.1101 42.1484 52.393 40.9784 54.6759C39.4374 50.852 38.1247 47.0281 37.0404 43.3184C40.7786 42.4338 44.7167 41.6633 48.7974 41.064ZM22.9719 76.7917C12.87 72.4827 6.3351 66.8325 6.3351 62.3522C6.3351 57.872 12.87 52.1932 22.9719 47.9128C25.426 46.8569 28.1084 45.9152 30.8765 45.0306C32.5031 50.6237 34.6433 56.4452 37.2972 62.4093C34.6718 68.3449 32.5601 74.1378 30.9621 79.7024C28.137 78.8178 25.4546 77.8475 22.9719 76.7917ZM38.3245 117.57C34.4435 115.344 32.7599 106.869 34.0726 95.9682C34.3865 93.2858 34.9001 90.4607 35.5279 87.5785C41.1211 88.9482 47.2279 90.0041 53.6486 90.689C57.501 95.9682 61.4961 100.762 65.5198 104.957C56.2169 113.604 47.4847 118.341 41.5491 118.341C40.265 118.312 39.1806 118.055 38.3245 117.57ZM106.013 95.8255C107.354 106.726 105.699 115.202 101.847 117.456C100.991 117.97 99.8777 118.198 98.565 118.198C92.658 118.198 83.8973 113.49 74.5944 104.9C78.5895 100.705 82.5846 95.9397 86.3799 90.6604C92.8292 89.9755 98.936 88.9197 104.529 87.5214C105.185 90.4036 105.699 93.1716 106.013 95.8255ZM117 76.7917C114.545 77.8475 111.863 78.7892 109.095 79.6739C107.468 74.0807 105.328 68.2593 102.674 62.2951C105.3 56.3596 107.411 50.5667 109.009 45.002C111.834 45.8867 114.517 46.8569 117.028 47.9128C127.13 52.2218 133.665 57.872 133.665 62.3522C133.636 66.8325 127.102 72.5112 117 76.7917Z" fill="#61DAFB"/>
<path d="M69.9709 75.3934C77.1733 75.3934 83.012 69.5546 83.012 62.3522C83.012 55.1498 77.1733 49.311 69.9709 49.311C62.7684 49.311 56.9297 55.1498 56.9297 62.3522C56.9297 69.5546 62.7684 75.3934 69.9709 75.3934Z" fill="#61DAFB"/>
</svg>
