<svg width="450" height="92" viewBox="0 0 450 92" fill="none" xmlns="http://www.w3.org/2000/svg">
<path fill-rule="evenodd" clip-rule="evenodd" d="M38.2573 30.6111C43.3548 10.2037 56.1116 0 76.5147 0C107.126 0 110.945 22.9474 126.246 26.7793C136.449 29.3324 145.374 25.5093 153.025 15.3056C147.927 35.7086 135.171 45.9123 114.772 45.9123C84.1609 45.9123 80.3422 22.9649 65.041 19.133C54.8373 16.5799 45.9123 20.403 38.2617 30.6067L38.2573 30.6111ZM0 76.5234C5.10623 56.116 17.8499 45.9123 38.2573 45.9123C68.8685 45.9123 72.6872 68.8597 87.9884 72.6916C98.1921 75.2447 107.117 71.4216 114.768 61.2179C109.67 81.6253 96.9133 91.829 76.5103 91.829C45.8992 91.829 42.0804 68.8816 26.7793 65.0497C16.5756 62.4966 7.65059 66.3197 0 76.5234Z" fill="url(#paint0_linear)"/>
<path fill-rule="evenodd" clip-rule="evenodd" d="M180.876 35.3059H170.86V29.3063H197.88V35.3059H187.869V62.5187H180.876V35.3059ZM210.961 59.4489C210.035 60.5046 208.94 61.3998 207.721 62.0983C206.53 62.7815 204.984 63.1231 203.087 63.1231C202.041 63.1282 200.999 62.9866 199.991 62.7027C199.01 62.4224 198.152 61.9888 197.425 61.402C196.698 60.8152 196.111 60.0663 195.682 59.1467C195.253 58.227 195.025 57.141 195.025 55.8622C195.025 54.1894 195.397 52.823 196.146 51.7676C196.897 50.7079 197.907 49.8589 199.08 49.3021C200.289 48.7109 201.647 48.2949 203.153 48.0452C204.673 47.7949 206.208 47.6399 207.747 47.581L210.865 47.4409V46.2322C210.865 44.7433 210.458 43.7185 209.63 43.1667C208.802 42.6149 207.835 42.3347 206.722 42.3347C204.138 42.3347 202.667 43.3112 202.299 45.2688L196.343 44.7126C196.773 42.1726 197.894 40.3333 199.693 39.1947C201.493 38.0561 203.919 37.4956 206.963 37.4956C208.824 37.4956 210.41 37.7145 211.715 38.17C213.02 38.6254 214.071 39.2648 214.859 40.0969C215.667 40.9622 216.258 42.0067 216.584 43.1448C216.943 44.336 217.119 45.6848 217.119 47.1738V62.5231H210.961V59.4576V59.4489ZM210.821 51.68L207.931 51.8202C206.565 51.8771 205.461 52.0216 204.625 52.2406C203.788 52.4595 203.136 52.7311 202.698 53.0551C202.26 53.3792 201.94 53.7558 201.791 54.1937C201.642 54.6317 201.559 55.1134 201.559 55.6389C201.559 56.4447 201.839 57.084 202.391 57.5439C202.943 58.0037 203.727 58.2446 204.712 58.2446C206.394 58.2446 207.76 57.8592 208.811 57.0797C209.402 56.6417 209.888 56.09 210.256 55.4287C210.624 54.7674 210.812 53.931 210.812 52.9413V51.6844L210.821 51.68ZM222.409 38.2357H228.934V62.5144H222.409V38.2357ZM222.321 29.3019H229.021V35.1614H222.321V29.3019ZM234.513 29.3019H241.038V62.5144H234.513V29.3019ZM243.959 38.2357H251.036L254.439 54.3295L259.09 38.4678H264.774L269.153 54.3777L272.556 38.2838H279.357L272.276 62.5625H265.939L261.603 46.5607L257.224 62.5625H251.032L243.955 38.2838L243.959 38.2357ZM282.322 38.2357H288.847V62.5144H282.322V38.2357ZM282.234 29.3019H288.934V35.1614H282.234V29.3019ZM294.382 38.2357H300.719V41.5858C301.682 40.1625 302.821 39.1203 304.135 38.4678C305.449 37.8152 306.828 37.4912 308.251 37.4912C311.019 37.4912 313.068 38.2138 314.404 39.6545C315.74 41.0953 316.41 43.3682 316.41 46.4687V62.5144H309.889V47.3577C309.889 45.606 309.565 44.4893 308.908 43.8674C308.251 43.2456 307.389 42.939 306.303 42.939C305.47 42.939 304.743 43.0704 304.135 43.3112C303.526 43.5521 302.961 43.9156 302.436 44.3798C301.998 44.8177 301.634 45.3345 301.341 45.9388C301.047 46.5555 300.897 47.2308 300.903 47.9139V62.5187H294.334V38.24L294.382 38.2357ZM338.525 59.3087C337.708 60.5555 336.586 61.5731 335.266 62.2651C333.945 62.9572 332.47 63.3007 330.98 63.2632C327.564 63.2632 325.024 62.1158 323.338 59.8211C321.652 57.5264 320.824 54.347 320.824 50.2874C320.805 48.5324 321.05 46.7844 321.551 45.1024C322.033 43.5346 322.72 42.1858 323.623 41.0559C324.508 39.9377 325.64 39.0386 326.929 38.4284C328.243 37.8153 329.71 37.4999 331.352 37.4999C332.561 37.4999 333.761 37.7189 334.956 38.1568C336.152 38.5948 337.277 39.4706 338.337 40.6705V29.3195H344.862V62.5319H338.53V59.3219L338.525 59.3087ZM338.385 50.0991C338.385 48.5488 338.254 47.3095 337.947 46.3767C337.641 45.444 337.255 44.6907 336.668 44.0995C336.108 43.5433 335.495 43.2237 334.829 43.0047C334.184 42.8359 333.521 42.7506 332.854 42.7507C332.156 42.7476 331.465 42.8908 330.826 43.1711C330.187 43.4514 329.635 43.8849 329.149 44.4717C328.663 45.0586 328.286 45.8381 328.011 46.7928C327.735 47.7474 327.59 48.8948 327.59 50.2349C327.59 51.6888 327.722 52.9062 328.028 53.8872C328.335 54.8681 328.654 55.6564 329.123 56.2607C329.591 56.8651 330.13 57.2986 330.752 57.5614C331.374 57.8242 332.044 57.9993 332.758 57.9993C334.308 57.9993 335.582 57.5483 336.576 56.6505C337.204 56.0165 337.673 55.2439 337.947 54.3952C338.236 53.5106 338.385 52.372 338.385 50.9793V50.1473V50.0991ZM389.369 51.0275C389.211 52.7967 388.799 54.4302 388.134 55.9323C387.487 57.404 386.554 58.7321 385.388 59.8386C384.152 60.985 382.692 61.8632 381.101 62.418C379.41 63.0311 377.448 63.3464 375.21 63.3464C372.697 63.3464 370.481 62.926 368.571 62.0896C366.722 61.297 365.081 60.0875 363.776 58.5555C362.484 57.0359 361.516 55.1966 360.864 53.0376C360.211 50.8786 359.887 48.5007 359.887 45.8994C359.887 43.2018 360.238 40.7844 360.956 38.6429C361.674 36.5015 362.699 34.6753 364.03 33.1557C365.361 31.6361 366.982 30.4712 368.874 29.6654C370.765 28.8596 372.916 28.4567 375.311 28.4567C377.422 28.4567 379.266 28.7195 380.829 29.245C382.392 29.7705 383.719 30.5325 384.792 31.5222C385.865 32.512 386.719 33.7119 387.376 35.1045C388.059 36.6015 388.543 38.1811 388.817 39.8034L381.919 40.6881C381.578 38.7349 380.912 37.1978 379.949 36.0811C378.985 34.9643 377.418 34.4082 375.307 34.4082C372.635 34.4082 370.608 35.4067 369.233 37.408C367.858 39.4093 367.153 42.2339 367.153 45.895C367.153 49.5867 367.897 52.4639 369.368 54.4083C370.035 55.3572 370.926 56.126 371.962 56.6457C372.999 57.1655 374.148 57.4199 375.307 57.3862C377.453 57.3862 379.029 56.8344 380.036 55.7352C381.044 54.636 381.67 53.0639 381.919 51.0144L389.369 51.0275ZM399.515 51.6844C399.669 53.7295 400.33 55.2185 401.486 56.1513C402.642 57.0841 404.363 57.5526 406.632 57.5526C407.718 57.5526 408.637 57.4344 409.382 57.2023C410.126 56.9702 410.731 56.6593 411.199 56.2739C411.646 55.9123 411.991 55.4396 412.198 54.9032C412.404 54.3532 412.507 53.7696 412.5 53.1821C412.5 52.3063 412.18 51.4961 411.528 50.7385C410.875 49.9809 409.68 49.4247 407.937 49.0875L403.601 48.2992C401.85 47.9927 400.387 47.5854 399.082 47.0905C397.777 46.5957 396.682 45.9519 395.797 45.1637C394.913 44.3754 394.238 43.4032 393.774 42.2558C393.31 41.1085 393.073 39.7421 393.073 38.1612C393.045 36.7086 393.373 35.2712 394.028 33.9746C394.661 32.7714 395.571 31.7358 396.682 30.9529C397.821 30.1471 399.178 29.534 400.755 29.1136C402.331 28.6932 404.083 28.4874 405.975 28.4874C408.397 28.4874 410.415 28.7677 412.031 29.3195C413.647 29.8713 414.952 30.6113 415.946 31.531C416.94 32.4506 417.676 33.5017 418.158 34.7191C418.64 35.9365 418.959 37.1846 419.121 38.4853L412.552 39.3173C412.211 37.4868 411.554 36.1643 410.582 35.3629C409.61 34.5614 408.121 34.1542 406.132 34.1542C404.95 34.1542 403.987 34.2549 403.22 34.4607C402.454 34.6666 401.845 34.9249 401.381 35.249C400.953 35.5287 400.613 35.9233 400.4 36.3876C400.216 36.8255 400.12 37.2722 400.12 37.7364C400.12 38.9758 400.47 39.9085 401.171 40.526C401.871 41.1435 403.054 41.6296 404.731 41.9712L409.294 42.8558C412.898 43.5696 415.539 44.7257 417.221 46.3154C418.902 47.9051 419.734 50.2568 419.734 53.2215C419.734 54.6755 419.463 56.0243 418.92 57.2505C418.363 58.4895 417.534 59.5868 416.494 60.4605C415.31 61.4383 413.941 62.1667 412.469 62.6019C410.858 63.1143 408.966 63.3683 406.785 63.3683C402.248 63.3683 398.78 62.4049 396.375 60.4605C393.971 58.5161 392.671 55.6433 392.434 51.6932H399.467L399.515 51.6844ZM429.732 51.6844C429.886 53.7295 430.547 55.2185 431.703 56.1513C432.859 57.0841 434.593 57.5526 436.849 57.5526C437.943 57.5526 438.854 57.4344 439.608 57.2023C440.361 56.9702 440.956 56.6593 441.425 56.2739C441.872 55.9123 442.216 55.4396 442.423 54.9032C442.63 54.3532 442.733 53.7696 442.726 53.1821C442.713 52.275 442.365 51.4047 441.749 50.7385C441.092 49.9809 439.901 49.4247 438.158 49.0875L433.823 48.2992C432.071 47.9927 430.608 47.5854 429.303 47.0905C427.998 46.5957 426.903 45.9519 426.019 45.1637C425.134 44.3754 424.46 43.4032 423.991 42.2558C423.523 41.1085 423.29 39.7421 423.29 38.1612C423.262 36.7086 423.59 35.2712 424.245 33.9746C424.884 32.7659 425.769 31.7543 426.899 30.9091C428.029 30.0639 429.395 29.4902 430.972 29.0698C432.548 28.6494 434.3 28.4436 436.192 28.4436C438.614 28.4436 440.632 28.7239 442.248 29.2757C443.864 29.8275 445.165 30.5675 446.163 31.4872C447.162 32.4068 447.898 33.4579 448.375 34.6753C448.852 35.8927 449.176 37.1408 449.338 38.4415L442.769 39.2735C442.428 37.443 441.771 36.1205 440.799 35.3191C439.827 34.5177 438.338 34.1104 436.349 34.1104C435.167 34.1104 434.204 34.2111 433.437 34.4169C432.671 34.6228 432.062 34.8811 431.598 35.2052C431.17 35.4849 430.83 35.8795 430.617 36.3438C430.429 36.7817 430.337 37.2284 430.337 37.6926C430.337 38.932 430.687 39.8648 431.388 40.4822C432.088 41.0997 433.271 41.5858 434.952 41.9274L439.559 42.847C443.164 43.5609 445.804 44.717 447.486 46.3067C449.168 47.8963 450 50.248 450 53.2128C450.015 54.5967 449.737 55.9683 449.185 57.2373C448.63 58.4771 447.8 59.5747 446.759 60.4473C445.69 61.367 444.35 62.0764 442.73 62.5932C441.11 63.1099 439.227 63.3596 437.05 63.3596C432.513 63.3596 429.045 62.3961 426.636 60.4517C424.228 58.5073 422.931 55.6345 422.747 51.6844H429.732Z" fill="#24292E"/>
<defs>
<linearGradient id="paint0_linear" x1="-7.99081e-07" y1="-81.6078" x2="153.025" y2="173.432" gradientUnits="userSpaceOnUse">
<stop stop-color="#2383AE"/>
<stop offset="1" stop-color="#6DD7B9"/>
</linearGradient>
</defs>
</svg>
